<svg
  className="customizable-icon"
  width="80"
  height="80"
  viewBox="0 0 80 80"
  fill="var(--fill-color, none)"
  xmlns="http://www.w3.org/2000/svg"
>
  <path
    className="svg-path"
    d="M40.0001 60V50M40.0001 50V40M40.0001 50H30.0001M40.0001 50H50.0001M43.3334 10.0029C43.0151 10 42.6577 10 42.2491 10H27.3341C23.6004 10 21.7321 10 20.3061 10.7266C19.0517 11.3658 18.0325 12.3849 17.3934 13.6393C16.6667 15.0654 16.6667 16.9336 16.6667 20.6673V59.334C16.6667 63.0677 16.6667 64.9335 17.3934 66.3596C18.0325 67.614 19.0517 68.6349 20.3061 69.2741C21.7308 70 23.5968 70 27.3232 70L52.6771 70C56.4034 70 58.2667 70 59.6914 69.2741C60.9458 68.6349 61.9683 67.614 62.6075 66.3596C63.3334 64.9349 63.3334 63.0716 63.3334 59.3453V31.0856C63.3334 30.6765 63.3333 30.3187 63.3303 30M43.3334 10.0029C44.2855 10.0116 44.8879 10.0462 45.4629 10.1842C46.1431 10.3475 46.7929 10.6175 47.3894 10.9831C48.062 11.3952 48.6395 11.9727 49.7917 13.125L60.21 23.5433C61.363 24.6963 61.9363 25.2712 62.3486 25.944C62.7141 26.5405 62.9846 27.1909 63.1479 27.8711C63.2859 28.4459 63.3212 29.0484 63.3303 30M43.3334 10.0029V19.3333C43.3334 23.067 43.3334 24.9326 44.06 26.3586C44.6992 27.6131 45.7183 28.6349 46.9727 29.2741C48.3974 30 50.2634 30 53.9898 30H63.3303M63.3303 30H63.3341"
    stroke="var(--stroke-color, black)"
    strokeWidth="var(--stroke-width, 4)"
    strokeLinecap="round"
    strokeLinejoin="round"
  />
</svg>
