<svg
  className="customizable-icon"
  width="80"
  height="80"
  viewBox="0 0 80 80"
  fill="var(--fill-color, none)"
  xmlns="http://www.w3.org/2000/svg"
>
  <path
    className="svg-path"
    d="M59.3436 66.6667L65.9768 66.6667C67.4182 66.6667 68.1395 66.6667 68.7453 66.4193C69.2801 66.2009 69.7505 65.8459 70.1074 65.3917C70.5118 64.8771 70.7106 64.185 71.1068 62.7985L74.7258 50.1319C75.3852 47.8239 75.7132 46.6699 75.4542 45.7569C75.2273 44.9571 74.7104 44.2711 74.0038 43.8332C73.2438 43.3624 72.1335 43.3351 70.0007 43.3335M59.3436 66.6667H20.6564M59.3436 66.6667C63.07 66.6667 64.9333 66.6667 66.358 65.9408C67.6124 65.3016 68.6349 64.2804 69.2741 63.026C70.0007 61.5999 70.0007 59.7331 70.0007 55.9994V43.3335M20.6564 66.6667H17.0703C14.6717 66.6667 13.4692 66.6667 12.6628 66.167C11.9561 65.7292 11.4381 65.0429 11.2113 64.2431C11.1635 64.0747 11.1358 63.898 11.1265 63.7073M20.6564 66.6667C16.93 66.6667 15.064 66.6667 13.6393 65.9408C12.6208 65.4218 11.7574 64.6505 11.1265 63.7073M70.0007 43.3335C69.8695 43.3334 69.7343 43.3334 69.5952 43.3334H16.6676L11.9434 59.8682L11.9365 59.8913C11.4028 61.7594 11.0859 62.8684 11.1265 63.7073M70.0007 43.3335L70.0007 30.666C70.0007 26.9323 70.0007 25.0654 69.2741 23.6394C68.6349 22.3849 67.613 21.3658 66.3586 20.7267C64.9325 20 63.067 20 59.3333 20H40M11.1265 63.7073C10.9804 63.4889 10.8468 63.2612 10.7266 63.0253C10 61.5993 10 59.7337 10 56V20M10 20H40M10 20C10 16.3181 12.9848 13.3334 16.6667 13.3334H28.9151C30.5457 13.3334 31.3629 13.3334 32.1301 13.5176C32.8104 13.6809 33.4595 13.9509 34.056 14.3164C34.7286 14.7286 35.306 15.3061 36.4583 16.4584L40 20"
    stroke="var(--stroke-color, black)"
    strokeWidth="var(--stroke-width, 4)"
    strokeLinecap="round"
    strokeLinejoin="round"
  />
</svg>
