<svg
  className="customizable-icon"
  width="80"
  height="80"
  viewBox="0 0 80 80"
  fill="var(--fill-color, none)"
  xmlns="http://www.w3.org/2000/svg"
>
  <path
    className="svg-path"
    d="M39.9999 53.3336V43.3336M39.9999 43.3336V33.3336M39.9999 43.3336H29.9999M39.9999 43.3336H49.9999M13.3333 56.0006V38.1741C13.3333 36.3929 13.3333 35.5019 13.5498 34.6731C13.7417 33.9386 14.0576 33.2436 14.484 32.6155C14.9651 31.9067 15.6354 31.319 16.9758 30.1461L32.9811 16.1415C35.4661 13.9671 36.7086 12.8799 38.108 12.4661C39.342 12.1012 40.6572 12.1012 41.8912 12.4661C43.2916 12.8802 44.536 13.9685 47.0247 16.1461L63.0247 30.1461C64.3651 31.319 65.034 31.9067 65.5151 32.6155C65.9415 33.2436 66.2582 33.9386 66.4501 34.6731C66.6666 35.5015 66.6666 36.3946 66.6666 38.1741V56.0122C66.6666 59.7386 66.6666 61.6038 65.9407 63.0285C65.3015 64.2829 64.2806 65.3019 63.0262 65.941C61.6015 66.6669 59.7382 66.6669 56.0118 66.6669H23.9896C20.2632 66.6669 18.3973 66.6669 16.9726 65.941C15.7182 65.3019 14.699 64.2829 14.0599 63.0285C13.3333 61.6024 13.3333 59.7342 13.3333 56.0006Z"
    stroke="var(--stroke-color, black)"
    stroke-width="var(--stroke-width, 4)"
    stroke-linecap="round"
    stroke-linejoin="round"
  />
</svg>
