<svg 
  class="customizable-map-pin" 
  width="80" 
  height="80" 
  viewBox="0 0 80 80" 
  fill="var(--fill-color, none)" 
  xmlns="http://www.w3.org/2000/svg"
>
  <path 
    class="svg-path" 
    d="M16.6667 33.0762C16.6667 49.2489 30.815 62.6231 37.0774 67.7507C37.9736 68.4846 38.4271 68.8559 39.0958 69.0441C39.6164 69.1907 40.3827 69.1907 40.9034 69.0441C41.5733 68.8555 42.0236 68.4878 42.9233 67.7512C49.1856 62.6236 63.3331 49.2504 63.3331 33.0777C63.3331 26.9573 60.875 21.0868 56.4991 16.7591C52.1233 12.4313 46.1887 10 40.0004 10C33.812 10 27.8768 12.4317 23.5009 16.7594C19.1251 21.0872 16.6667 26.9558 16.6667 33.0762Z" 
    stroke="var(--stroke-color, black)" 
    stroke-width="var(--stroke-width, 4)" 
    stroke-linecap="round" 
    stroke-linejoin="round"
  />
  <path 
    class="svg-path" 
    d="M33.3334 30C33.3334 33.6819 36.3182 36.6667 40.0001 36.6667C43.682 36.6667 46.6667 33.6819 46.6667 30C46.6667 26.3181 43.682 23.3333 40.0001 23.3333C36.3182 23.3333 33.3334 26.3181 33.3334 30Z" 
    stroke="var(--stroke-color, black)" 
    stroke-width="var(--stroke-width, 4)" 
    stroke-linecap="round" 
    stroke-linejoin="round"
  />
</svg>
