<svg 
  width="80" 
  height="80" 
  viewBox="0 0 80 80" 
  fill="var(--fill-color, none)" 
  xmlns="http://www.w3.org/2000/svg"
>
  <path 
    d="M13.333 13.3334L66.6663 66.6667M54.9996 55.8529C50.491 58.2817 45.395 59.9996 39.9996 59.9996C28.2308 59.9996 17.8875 51.8262 11.956 45.9294C10.3903 44.3729 9.60762 43.5947 9.10934 42.0671C8.75397 40.9776 8.75386 39.0219 9.10934 37.9325C9.60778 36.4049 10.3921 35.6249 11.9609 34.0656C14.9505 31.0941 19.06 27.5454 23.9073 24.7559M64.9996 48.7782C66.1098 47.8018 67.1265 46.8412 68.0389 45.9343L68.0486 45.9241C69.6108 44.3714 70.394 43.593 70.8913 42.0687C71.2468 40.9793 71.2461 39.0228 70.8907 37.9334C70.3926 36.4063 69.6089 35.6259 68.0443 34.0704C62.1128 28.1737 51.7685 20 39.9996 20C38.8746 20 37.7627 20.0747 36.6663 20.215M44.4093 45C43.2341 46.0373 41.6904 46.6667 39.9996 46.6667C36.3177 46.6667 33.333 43.6819 33.333 40C33.333 38.2017 34.045 36.5703 35.2026 35.3711" 
    stroke="var(--stroke-color, black)" 
    stroke-width="var(--stroke-width, 4)" 
    stroke-linecap="round" 
    stroke-linejoin="round"
  />
</svg>
