<svg
  width="80"
  height="80"
  viewBox="0 0 80 80"
  fill="none"
  xmlns="http://www.w3.org/2000/svg"
>
  <path
    d="M56.6667 40C56.6667 41.841 58.1591 43.3334 60.0001 43.3334C61.841 43.3334 63.3334 41.841 63.3334 40C63.3334 38.1591 61.841 36.6667 60.0001 36.6667C58.1591 36.6667 56.6667 38.1591 56.6667 40Z"
    fill="var(--fill-color, white)"
    stroke="var(--stroke-color, white)"
    stroke-width="var(--stroke-width, 4)"
    stroke-linecap="round"
    stroke-linejoin="round"
  />
  <path
    d="M36.6667 40C36.6667 41.841 38.1591 43.3334 40.0001 43.3334C41.841 43.3334 43.3334 41.841 43.3334 40C43.3334 38.1591 41.841 36.6667 40.0001 36.6667C38.1591 36.6667 36.6667 38.1591 36.6667 40Z"
    fill="var(--fill-color, white)"
    stroke="var(--stroke-color, white)"
    stroke-width="var(--stroke-width, 4)"
    stroke-linecap="round"
    stroke-linejoin="round"
  />
  <path
    d="M16.6667 40C16.6667 41.841 18.1591 43.3334 20.0001 43.3334C21.841 43.3334 23.3334 41.841 23.3334 40C23.3334 38.1591 21.841 36.6667 20.0001 36.6667C18.1591 36.6667 16.6667 38.1591 16.6667 40Z"
    fill="var(--fill-color, white)"
    stroke="var(--stroke-color, white)"
    stroke-width="var(--stroke-width, 4)"
    stroke-linecap="round"
    stroke-linejoin="round"
  />
</svg>
