<svg 
  width="80" 
  height="80" 
  viewBox="0 0 80 80" 
  fill="var(--fill-color, none)" 
  xmlns="http://www.w3.org/2000/svg"
>
  <path 
    d="M11.956 45.9294C17.8874 51.8261 28.2318 59.9997 40.0006 59.9997C51.7695 59.9997 62.1118 51.8261 68.0432 45.9294C69.6075 44.3742 70.3924 43.594 70.8905 42.0671C71.2459 40.9776 71.2459 39.0225 70.8905 37.933C70.3924 36.406 69.6077 35.6257 68.0432 34.0704C62.1118 28.1736 51.7695 20 40.0006 20C28.2318 20 17.8874 28.1736 11.956 34.0704C10.3905 35.6267 9.60762 36.4055 9.10932 37.933C8.75392 39.0224 8.75392 40.9776 9.10932 42.0671C9.60762 43.5946 10.3905 44.373 11.956 45.9294Z" 
    stroke="var(--stroke-color, black)" 
    stroke-width="var(--stroke-width, 4)" 
    stroke-linecap="round" 
    stroke-linejoin="round"
  />
  <path 
    d="M33.3333 40C33.3333 43.6819 36.3181 46.6667 40 46.6667C43.6819 46.6667 46.6667 43.6819 46.6667 40C46.6667 36.3181 43.6819 33.3333 40 33.3333C36.3181 33.3333 33.3333 36.3181 33.3333 40Z" 
    stroke="var(--stroke-color, black)" 
    stroke-width="var(--stroke-width, 4)" 
    stroke-linecap="round" 
    stroke-linejoin="round"
  />
</svg>
