<svg
  width="80"
  height="80"
  viewBox="0 0 80 80"
  fill="var(--fill-color, none)"
  xmlns="http://www.w3.org/2000/svg"
>
  <path
    d="M46.6666 33.3333V56.6667M33.3333 33.3333V56.6667M19.9999 20V59.3333C19.9999 63.067 19.9999 64.9326 20.7265 66.3586C21.3657 67.6131 22.3848 68.6349 23.6392 69.2741C25.0639 70 26.9299 70 30.6563 70H49.3436C53.0699 70 54.9332 70 56.3579 69.2741C57.6123 68.6349 58.6349 67.6131 59.274 66.3586C59.9999 64.934 59.9999 63.07 59.9999 59.3436V20M19.9999 20H26.6666M19.9999 20H13.3333M26.6666 20H53.3333M26.6666 20C26.6666 16.8937 26.6666 15.3414 27.1741 14.1162C27.8507 12.4827 29.1476 11.1841 30.7812 10.5075C32.0063 10 33.5603 10 36.6666 10H43.3333C46.4395 10 47.9927 10 49.2178 10.5075C50.8513 11.1841 52.1488 12.4827 52.8254 14.1162C53.3329 15.3413 53.3333 16.8937 53.3333 20M53.3333 20H59.9999M59.9999 20H66.6666"
    stroke="var(--stroke-color, black)"
    stroke-width="var(--stroke-width, 4)"
    stroke-linecap="round"
    stroke-linejoin="round"
    fill="var(--fill-color, none)"
  />
</svg>
